<?xml version="1.0" encoding="UTF-8"?>
<svg xmlns="http://www.w3.org/2000/svg" xmlns:xlink="http://www.w3.org/1999/xlink" width="240" height="240" viewBox="0 0 240 240">
<path fill-rule="nonzero" fill="rgb(11.764706%, 28.235295%, 35.686275%)" fill-opacity="1" d="M 41.789062 0.0117188 L 198.21875 0.0117188 C 221.292969 0.0117188 240 18.722656 240 41.796875 L 240 198.226562 C 240 221.304688 221.292969 240.011719 198.21875 240.011719 L 41.789062 240.011719 C 18.710938 240.011719 0.00390625 221.304688 0.00390625 198.226562 L 0.00390625 41.796875 C 0.00390625 18.722656 18.710938 0.0117188 41.789062 0.0117188 Z M 41.789062 0.0117188 "/>
<path fill-rule="nonzero" fill="rgb(100%, 79.607844%, 36.078432%)" fill-opacity="1" d="M 174.886719 80.023438 L 96.90625 116.390625 L 96.90625 172.246094 L 196.28125 125.90625 Z M 174.886719 80.023438 "/>
<path fill-rule="nonzero" fill="rgb(21.568628%, 74.509805%, 85.09804%)" fill-opacity="1" d="M 96.90625 117.558594 L 96.90625 173.421875 L 179.625 211.992188 L 174.667969 181.746094 L 201.019531 166.109375 Z M 96.90625 117.558594 "/>
<path fill-rule="nonzero" fill="rgb(100%, 97.647059%, 92.156863%)" fill-opacity="1" d="M 46.28125 55.960938 L 96.90625 55.960938 L 96.90625 205.960938 L 46.28125 205.960938 Z M 46.28125 55.960938 "/>
<path fill-rule="nonzero" fill="rgb(0%, 0%, 0%)" fill-opacity="0.313726" d="M 46.28125 55.960938 L 46.28125 59.191406 L 192.8125 127.523438 L 196.28125 125.90625 Z M 46.28125 55.960938 "/>
<path fill-rule="nonzero" fill="rgb(21.568628%, 74.509805%, 85.09804%)" fill-opacity="1" d="M 96.90625 28.03125 L 46.28125 55.960938 L 196.28125 125.90625 L 196.28125 70.050781 Z M 96.90625 28.03125 "/>
</svg>
