<?xml version="1.0" encoding="UTF-8"?>
<svg xmlns="http://www.w3.org/2000/svg" xmlns:xlink="http://www.w3.org/1999/xlink" width="49.999985" height="240.000031" viewBox="0 0 49.999985 240.000031">
<path fill-rule="nonzero" fill="rgb(0%, 0%, 0%)" fill-opacity="1" d="M 22.894531 34.523438 C 23.898438 34.109375 25.015625 34.148438 25.996094 34.632812 C 28.035156 35.632812 28.941406 38.246094 28.023438 40.46875 C -9.558594 131.167969 11.90625 194.890625 48.710938 232.355469 C 50.351562 234.023438 50.4375 236.816406 48.90625 238.597656 C 47.375 240.382812 44.808594 240.476562 43.171875 238.808594 C 4.113281 199.050781 -18.027344 130.140625 20.632812 36.839844 C 21.074219 35.769531 21.886719 34.9375 22.894531 34.523438 Z M 22.894531 34.523438 "/>
<path fill-rule="nonzero" fill="rgb(0%, 0%, 0%)" fill-opacity="1" d="M 45.082031 50.277344 L 43.457031 5.933594 C 43.371094 3.59375 42.078125 1.507812 40.117188 0.546875 C 38.15625 -0.414062 35.867188 -0.0898438 34.199219 1.386719 L 2.585938 29.410156 C 0.699219 31.082031 -0.253906 33.699219 0.0585938 36.324219 C 0.375 38.949219 1.914062 41.210938 4.132812 42.296875 L 35.183594 57.546875 C 37.402344 58.632812 39.976562 58.394531 41.996094 56.914062 C 44.011719 55.433594 45.179688 52.921875 45.082031 50.277344 Z M 45.082031 50.277344 "/>
</svg>
