<?xml version="1.0" encoding="UTF-8" standalone="no"?>
<!-- Created with Inkscape (http://www.inkscape.org/) -->

<svg
   width="49.999985"
   height="240.00003"
   viewBox="0 0 13.229162 63.500008"
   version="1.1"
   id="svg1"
   xmlns="http://www.w3.org/2000/svg"
   xmlns:svg="http://www.w3.org/2000/svg">
  <defs
     id="defs1" />
  <g
     id="layer1"
     transform="translate(-63.538132,-101.77727)">
    <g
       id="path3">
      <g
         id="g6"
         transform="matrix(-0.90119133,0,0,0.98103511,134.0273,1.9301951)">
        <path
           style="stroke-linecap:round;-inkscape-stroke:none"
           d="m 71.496094,111.08789 a 1.190625,1.190625 0 0 0 -0.910157,0.0293 1.190625,1.190625 0 0 0 -0.595703,1.57422 c 11.034059,24.46197 4.731498,41.64767 -6.074218,51.75195 a 1.190625,1.190625 0 0 0 -0.05664,1.68359 1.190625,1.190625 0 0 0 1.683594,0.0566 c 11.466694,-10.72235 17.967545,-29.3075 6.617187,-54.4707 a 1.190625,1.190625 0 0 0 -0.664062,-0.625 z"
           id="path6" />
        <g
           id="g5">
          <path
             d="m 64.981962,115.33685 0.477478,-11.9592 a 1.6668749,1.6668749 0 0 1 2.718075,-1.22604 l 9.280874,7.55751 a 2.0603708,2.0603708 0 0 1 -0.453821,3.47581 l -9.116701,4.11226 a 2.0603708,2.0603708 0 0 1 -2.905905,-1.96034 z"
             id="path5" />
        </g>
      </g>
    </g>
  </g>
</svg>
