<?xml version="1.0" encoding="UTF-8"?>
<svg xmlns="http://www.w3.org/2000/svg" xmlns:xlink="http://www.w3.org/1999/xlink">
<symbol id="logo" viewBox="0 0 240 54.174803">
<path fill-rule="nonzero" fill="rgb(11.764706%, 28.235294%, 35.686275%)" fill-opacity="1" d="M 9.433594 0.00390625 L 44.742188 0.00390625 C 49.953125 0.00390625 54.175781 4.226562 54.175781 9.433594 L 54.175781 44.746094 C 54.175781 49.953125 49.953125 54.175781 44.742188 54.175781 L 9.433594 54.175781 C 4.222656 54.175781 0 49.953125 0 44.746094 L 0 9.433594 C 0 4.226562 4.222656 0.00390625 9.433594 0.00390625 Z M 9.433594 0.00390625 "/>
<path fill-rule="nonzero" fill="rgb(100%, 79.607843%, 36.078431%)" fill-opacity="1" d="M 39.476562 18.0625 L 21.875 26.273438 L 21.875 38.882812 L 44.304688 28.421875 Z M 39.476562 18.0625 "/>
<path fill-rule="nonzero" fill="rgb(21.568627%, 74.509804%, 85.098039%)" fill-opacity="1" d="M 21.875 26.535156 L 21.875 39.144531 L 40.546875 47.851562 L 39.425781 41.027344 L 45.375 37.496094 Z M 21.875 26.535156 "/>
<path fill-rule="nonzero" fill="rgb(100%, 97.647059%, 92.156863%)" fill-opacity="1" d="M 10.449219 12.632812 L 21.875 12.632812 L 21.875 46.492188 L 10.449219 46.492188 Z M 10.449219 12.632812 "/>
<path fill-rule="nonzero" fill="rgb(0%, 0%, 0%)" fill-opacity="0.313725" d="M 10.445312 12.632812 L 10.445312 13.363281 L 43.523438 28.785156 L 44.304688 28.421875 Z M 10.445312 12.632812 "/>
<path fill-rule="nonzero" fill="rgb(21.568627%, 74.509804%, 85.098039%)" fill-opacity="1" d="M 21.875 6.328125 L 10.449219 12.632812 L 44.304688 28.421875 L 44.304688 15.8125 Z M 21.875 6.328125 "/>
<path fill-rule="nonzero" fill-opacity="1" d="M 86 37.941406 L 86 15.820312 L 93.921875 15.820312 C 95.785156 15.820312 97.378906 16.121094 98.695312 16.722656 C 100.027344 17.308594 101.050781 18.160156 101.769531 19.269531 C 102.480469 20.371094 102.84375 21.714844 102.84375 23.292969 C 102.84375 24.832031 102.480469 26.144531 101.769531 27.242188 C 101.050781 28.34375 100.027344 29.207031 98.695312 29.816406 C 97.378906 30.417969 95.785156 30.71875 93.921875 30.71875 L 86.898438 30.71875 L 87.625 29.941406 L 87.625 37.941406 Z M 101.371094 37.941406 L 95.597656 29.917969 L 97.445312 29.917969 L 103.195312 37.941406 Z M 87.625 30.042969 L 86.898438 29.292969 L 93.921875 29.292969 C 96.300781 29.292969 98.109375 28.769531 99.34375 27.71875 C 100.578125 26.65625 101.195312 25.179688 101.195312 23.292969 C 101.195312 21.363281 100.578125 19.882812 99.34375 18.84375 C 98.109375 17.796875 96.300781 17.269531 93.921875 17.269531 L 86.898438 17.269531 L 87.625 16.496094 Z M 110.179688 25.992188 L 122.152344 25.992188 L 122.152344 27.417969 L 110.179688 27.417969 Z M 110.378906 36.492188 L 124.027344 36.492188 L 124.027344 37.941406 L 108.753906 37.941406 L 108.753906 15.820312 L 123.550781 15.820312 L 123.550781 17.269531 L 110.378906 17.269531 Z M 126.195312 37.941406 L 136.367188 15.820312 L 137.992188 15.820312 L 148.164062 37.941406 L 146.414062 37.941406 L 136.816406 16.847656 L 137.519531 16.847656 L 127.945312 37.941406 Z M 129.917969 31.71875 L 130.46875 30.367188 L 143.714844 30.367188 L 144.242188 31.71875 Z M 152.171875 37.941406 L 152.171875 15.820312 L 160.917969 15.820312 C 163.269531 15.820312 165.324219 16.296875 167.09375 17.246094 C 168.855469 18.195312 170.230469 19.507812 171.214844 21.171875 C 172.195312 22.839844 172.691406 24.746094 172.691406 26.894531 C 172.691406 29.042969 172.195312 30.957031 171.214844 32.617188 C 170.230469 34.265625 168.855469 35.566406 167.09375 36.515625 C 165.324219 37.464844 163.269531 37.941406 160.917969 37.941406 Z M 153.796875 36.492188 L 160.792969 36.492188 C 162.875 36.492188 164.679688 36.085938 166.21875 35.265625 C 167.765625 34.4375 168.953125 33.304688 169.792969 31.867188 C 170.640625 30.417969 171.066406 28.761719 171.066406 26.894531 C 171.066406 25.011719 170.640625 23.355469 169.792969 21.917969 C 168.953125 20.46875 167.765625 19.339844 166.21875 18.519531 C 164.679688 17.691406 162.875 17.269531 160.792969 17.269531 L 153.796875 17.269531 Z M 179.703125 25.992188 L 191.671875 25.992188 L 191.671875 27.417969 L 179.703125 27.417969 Z M 179.902344 36.492188 L 193.546875 36.492188 L 193.546875 37.941406 L 178.277344 37.941406 L 178.277344 15.820312 L 193.074219 15.820312 L 193.074219 17.269531 L 179.902344 17.269531 Z M 208.667969 38.089844 C 207.03125 38.089844 205.519531 37.816406 204.121094 37.265625 C 202.722656 36.703125 201.503906 35.917969 200.472656 34.917969 C 199.433594 33.90625 198.632812 32.71875 198.074219 31.367188 C 197.503906 30.003906 197.222656 28.511719 197.222656 26.894531 C 197.222656 25.261719 197.503906 23.769531 198.074219 22.417969 C 198.632812 21.058594 199.433594 19.871094 200.472656 18.871094 C 201.523438 17.859375 202.734375 17.070312 204.121094 16.519531 C 205.519531 15.957031 207.03125 15.671875 208.667969 15.671875 C 210.230469 15.671875 211.695312 15.933594 213.042969 16.445312 C 214.40625 16.945312 215.574219 17.707031 216.542969 18.71875 L 215.542969 19.769531 C 214.59375 18.859375 213.542969 18.191406 212.394531 17.769531 C 211.246094 17.359375 210.027344 17.144531 208.746094 17.144531 C 207.328125 17.144531 206.007812 17.390625 204.796875 17.871094 C 203.597656 18.359375 202.546875 19.046875 201.648438 19.945312 C 200.746094 20.832031 200.046875 21.863281 199.546875 23.042969 C 199.058594 24.214844 198.820312 25.492188 198.820312 26.894531 C 198.820312 28.28125 199.058594 29.5625 199.546875 30.742188 C 200.046875 31.929688 200.746094 32.960938 201.648438 33.84375 C 202.546875 34.730469 203.597656 35.410156 204.796875 35.890625 C 206.007812 36.378906 207.328125 36.617188 208.746094 36.617188 C 210.027344 36.617188 211.246094 36.417969 212.394531 36.015625 C 213.542969 35.605469 214.59375 34.917969 215.542969 33.96875 L 216.542969 34.992188 C 215.574219 36.027344 214.40625 36.804688 213.042969 37.316406 C 211.695312 37.835938 210.230469 38.089844 208.667969 38.089844 Z M 223.355469 32.34375 L 223.277344 30.316406 L 237.375 15.820312 L 239.324219 15.820312 L 229.476562 26.019531 L 228.550781 27.019531 Z M 221.953125 37.941406 L 221.953125 15.820312 L 223.578125 15.820312 L 223.578125 37.941406 Z M 238.050781 37.941406 L 228.078125 26.570312 L 229.203125 25.394531 L 240 37.941406 Z M 82.148438 7.347656 "/>
<path fill-rule="nonzero" fill-opacity="0.7" d="M 70.050781 10.160156 L 70.476562 10.160156 L 70.476562 44.019531 L 70.050781 44.019531 Z M 70.050781 10.160156 "/>
</symbol>
</svg>
