<?xml version="1.0" encoding="UTF-8"?>
<svg xmlns="http://www.w3.org/2000/svg" xmlns:xlink="http://www.w3.org/1999/xlink" width="240" height="43.365164" viewBox="0 0 240 43.365164">
<path fill-rule="nonzero" fill="rgb(100%, 79.607844%, 36.078432%)" fill-opacity="1" d="M 34.507812 12.605469 L 16.472656 21.015625 L 16.472656 33.933594 L 39.457031 23.21875 Z M 34.507812 12.605469 "/>
<path fill-rule="nonzero" fill="rgb(21.568628%, 74.509805%, 85.09804%)" fill-opacity="1" d="M 16.476562 21.285156 L 16.476562 34.203125 L 35.605469 43.125 L 34.457031 36.128906 L 40.550781 32.515625 Z M 16.476562 21.285156 "/>
<path fill-rule="nonzero" fill="rgb(9.411765%, 47.450981%, 58.431375%)" fill-opacity="1" d="M 4.765625 7.042969 L 16.472656 7.042969 L 16.472656 41.730469 L 4.765625 41.730469 Z M 4.765625 7.042969 "/>
<path fill-rule="nonzero" fill="rgb(0%, 0%, 0%)" fill-opacity="0.313726" d="M 4.765625 7.039062 L 4.765625 7.789062 L 38.652344 23.589844 L 39.457031 23.214844 Z M 4.765625 7.039062 "/>
<path fill-rule="nonzero" fill="rgb(21.568628%, 74.509805%, 85.09804%)" fill-opacity="1" d="M 16.472656 0.582031 L 4.765625 7.042969 L 39.457031 23.21875 L 39.457031 10.300781 Z M 16.472656 0.582031 "/>
<path fill-rule="nonzero" fill="rgb(100%, 100%, 100%)" fill-opacity="1" d="M 16.472656 12.5 L 16.472656 21.015625 L 25.605469 16.757812 Z M 16.472656 12.5 "/>
<path fill-rule="nonzero" fill="rgb(0%, 0%, 0%)" fill-opacity="1" d="M 82.230469 32.96875 L 82.230469 10.308594 L 90.347656 10.308594 C 92.253906 10.308594 93.886719 10.613281 95.238281 11.230469 C 96.601562 11.832031 97.652344 12.699219 98.386719 13.839844 C 99.117188 14.96875 99.488281 16.34375 99.488281 17.964844 C 99.488281 19.539062 99.117188 20.882812 98.386719 22.007812 C 97.652344 23.136719 96.601562 24.019531 95.238281 24.648438 C 93.886719 25.261719 92.253906 25.570312 90.347656 25.570312 L 83.152344 25.570312 L 83.894531 24.773438 L 83.894531 32.96875 Z M 97.976562 32.96875 L 92.0625 24.75 L 93.957031 24.75 L 99.847656 32.96875 Z M 83.894531 24.878906 L 83.152344 24.109375 L 90.347656 24.109375 C 92.785156 24.109375 94.636719 23.570312 95.902344 22.496094 C 97.164062 21.40625 97.800781 19.898438 97.800781 17.964844 C 97.800781 15.984375 97.164062 14.46875 95.902344 13.40625 C 94.636719 12.328125 92.785156 11.792969 90.347656 11.792969 L 83.152344 11.792969 L 83.894531 11 Z M 107 20.730469 L 119.265625 20.730469 L 119.265625 22.1875 L 107 22.1875 Z M 107.203125 31.484375 L 121.183594 31.484375 L 121.183594 32.96875 L 105.539062 32.96875 L 105.539062 10.308594 L 120.699219 10.308594 L 120.699219 11.792969 L 107.203125 11.792969 Z M 123.414062 32.96875 L 133.835938 10.308594 L 135.5 10.308594 L 145.921875 32.96875 L 144.128906 32.96875 L 134.296875 11.355469 L 135.011719 11.355469 L 125.203125 32.96875 Z M 127.226562 26.59375 L 127.789062 25.210938 L 141.363281 25.210938 L 141.898438 26.59375 Z M 150.03125 32.96875 L 150.03125 10.308594 L 158.992188 10.308594 C 161.398438 10.308594 163.507812 10.792969 165.316406 11.765625 C 167.121094 12.738281 168.53125 14.082031 169.542969 15.785156 C 170.546875 17.496094 171.054688 19.449219 171.054688 21.652344 C 171.054688 23.851562 170.546875 25.8125 169.542969 27.515625 C 168.53125 29.203125 167.121094 30.535156 165.316406 31.507812 C 163.507812 32.480469 161.398438 32.96875 158.992188 32.96875 Z M 151.695312 31.484375 L 158.863281 31.484375 C 160.996094 31.484375 162.847656 31.066406 164.421875 30.230469 C 166.007812 29.378906 167.226562 28.21875 168.082031 26.746094 C 168.953125 25.261719 169.390625 23.566406 169.390625 21.652344 C 169.390625 19.722656 168.953125 18.027344 168.082031 16.554688 C 167.226562 15.070312 166.007812 13.910156 164.421875 13.074219 C 162.847656 12.222656 160.996094 11.792969 158.863281 11.792969 L 151.695312 11.792969 Z M 178.230469 20.730469 L 190.496094 20.730469 L 190.496094 22.1875 L 178.230469 22.1875 Z M 178.433594 31.484375 L 192.417969 31.484375 L 192.417969 32.96875 L 176.769531 32.96875 L 176.769531 10.308594 L 191.929688 10.308594 L 191.929688 11.792969 L 178.433594 11.792969 Z M 207.910156 33.121094 C 206.230469 33.121094 204.683594 32.839844 203.246094 32.277344 C 201.8125 31.703125 200.566406 30.894531 199.507812 29.871094 C 198.445312 28.832031 197.628906 27.617188 197.050781 26.234375 C 196.46875 24.839844 196.179688 23.308594 196.179688 21.652344 C 196.179688 19.980469 196.46875 18.449219 197.050781 17.066406 C 197.628906 15.671875 198.445312 14.453125 199.507812 13.429688 C 200.585938 12.394531 201.828125 11.585938 203.246094 11.023438 C 204.683594 10.449219 206.230469 10.152344 207.910156 10.152344 C 209.507812 10.152344 211.007812 10.421875 212.390625 10.945312 C 213.785156 11.460938 214.980469 12.238281 215.972656 13.277344 L 214.949219 14.351562 C 213.976562 13.417969 212.902344 12.734375 211.722656 12.304688 C 210.546875 11.882812 209.296875 11.664062 207.984375 11.664062 C 206.53125 11.664062 205.179688 11.914062 203.9375 12.40625 C 202.710938 12.90625 201.632812 13.609375 200.710938 14.53125 C 199.789062 15.441406 199.074219 16.496094 198.5625 17.707031 C 198.0625 18.902344 197.820312 20.214844 197.820312 21.652344 C 197.820312 23.070312 198.0625 24.382812 198.5625 25.59375 C 199.074219 26.808594 199.789062 27.867188 200.710938 28.769531 C 201.632812 29.679688 202.710938 30.375 203.9375 30.867188 C 205.179688 31.367188 206.53125 31.613281 207.984375 31.613281 C 209.296875 31.613281 210.546875 31.40625 211.722656 30.996094 C 212.902344 30.574219 213.976562 29.871094 214.949219 28.898438 L 215.972656 29.945312 C 214.980469 31.011719 213.785156 31.804688 212.390625 32.328125 C 211.007812 32.859375 209.507812 33.121094 207.910156 33.121094 Z M 222.945312 27.234375 L 222.867188 25.160156 L 237.3125 10.308594 L 239.308594 10.308594 L 229.21875 20.753906 L 228.273438 21.777344 Z M 221.511719 32.96875 L 221.511719 10.308594 L 223.175781 10.308594 L 223.175781 32.96875 Z M 238.003906 32.96875 L 227.785156 21.316406 L 228.9375 20.113281 L 240 32.96875 Z M 78.285156 1.625 "/>
<path fill-rule="nonzero" fill="rgb(12.156863%, 34.117648%, 41.960785%)" fill-opacity="1" d="M 61.355469 4.507812 L 61.789062 4.507812 L 61.789062 39.199219 L 61.355469 39.199219 Z M 61.355469 4.507812 "/>
</svg>
