<?xml version="1.0" encoding="UTF-8"?>
<svg xmlns="http://www.w3.org/2000/svg" xmlns:xlink="http://www.w3.org/1999/xlink">
<symbol id="logo" viewBox="0 0 240 54.174803">
<path fill-rule="nonzero" fill="rgb(2.352941%, 29.803922%, 36.078431%)" fill-opacity="1" d="M 9.433594 0.00390625 L 44.742188 0.00390625 C 49.953125 0.00390625 54.175781 4.226562 54.175781 9.433594 L 54.175781 44.746094 C 54.175781 49.953125 49.953125 54.175781 44.742188 54.175781 L 9.433594 54.175781 C 4.222656 54.175781 0 49.953125 0 44.746094 L 0 9.433594 C 0 4.226562 4.222656 0.00390625 9.433594 0.00390625 Z M 9.433594 0.00390625 "/>
<path fill-rule="nonzero" fill="rgb(98.431373%, 80.784314%, 33.333333%)" fill-opacity="1" d="M 39.476562 18.0625 L 21.875 26.273438 L 21.875 38.882812 L 44.304688 28.421875 Z M 39.476562 18.0625 "/>
<path fill-rule="nonzero" fill="rgb(27.45098%, 73.333333%, 83.921569%)" fill-opacity="1" d="M 21.875 26.535156 L 21.875 39.144531 L 40.546875 47.851562 L 39.425781 41.027344 L 45.375 37.496094 Z M 21.875 26.535156 "/>
<path fill-rule="nonzero" fill="rgb(100%, 98.039216%, 93.72549%)" fill-opacity="1" d="M 10.449219 12.632812 L 21.875 12.632812 L 21.875 46.492188 L 10.449219 46.492188 Z M 10.449219 12.632812 "/>
<path fill-rule="nonzero" fill="rgb(0%, 0%, 0%)" fill-opacity="0.313725" d="M 10.445312 12.632812 L 10.445312 13.363281 L 43.523438 28.785156 L 44.304688 28.421875 Z M 10.445312 12.632812 "/>
<path fill-rule="nonzero" fill="rgb(27.45098%, 73.333333%, 83.921569%)" fill-opacity="1" d="M 21.875 6.328125 L 10.449219 12.632812 L 44.304688 28.421875 L 44.304688 15.8125 Z M 21.875 6.328125 "/>
<path fill-rule="nonzero" fill-opacity="1" d="M 86.003906 37.941406 L 86.003906 15.820312 L 93.9375 15.820312 C 95.789062 15.820312 97.382812 16.113281 98.707031 16.703125 C 100.035156 17.292969 101.058594 18.148438 101.773438 19.265625 C 102.492188 20.359375 102.847656 21.695312 102.847656 23.277344 C 102.847656 24.816406 102.492188 26.140625 101.773438 27.257812 C 101.058594 28.355469 100.035156 29.207031 98.707031 29.820312 C 97.382812 30.410156 95.789062 30.703125 93.9375 30.703125 L 86.890625 30.703125 L 87.617188 29.945312 L 87.617188 37.941406 Z M 101.363281 37.941406 L 95.613281 29.914062 L 97.445312 29.914062 L 103.195312 37.941406 Z M 87.617188 30.039062 L 86.890625 29.28125 L 93.9375 29.28125 C 96.316406 29.28125 98.117188 28.753906 99.339844 27.703125 C 100.582031 26.648438 101.207031 25.171875 101.207031 23.277344 C 101.207031 21.359375 100.582031 19.886719 99.339844 18.851562 C 98.117188 17.800781 96.316406 17.273438 93.9375 17.273438 L 86.890625 17.273438 L 87.617188 16.484375 Z M 110.179688 25.996094 L 122.15625 25.996094 L 122.15625 27.417969 L 110.179688 27.417969 Z M 110.371094 36.488281 L 124.023438 36.488281 L 124.023438 37.941406 L 108.757812 37.941406 L 108.757812 15.820312 L 123.546875 15.820312 L 123.546875 17.273438 L 110.371094 17.273438 Z M 126.203125 37.941406 L 136.378906 15.820312 L 137.988281 15.820312 L 148.164062 37.941406 L 146.425781 37.941406 L 136.820312 16.832031 L 137.515625 16.832031 L 127.941406 37.941406 Z M 129.929688 31.714844 L 130.46875 30.355469 L 143.710938 30.355469 L 144.246094 31.714844 Z M 152.179688 37.941406 L 152.179688 15.820312 L 160.933594 15.820312 C 163.269531 15.820312 165.324219 16.292969 167.09375 17.242188 C 168.863281 18.191406 170.234375 19.496094 171.203125 21.160156 C 172.191406 22.824219 172.6875 24.730469 172.6875 26.878906 C 172.6875 29.027344 172.191406 30.933594 171.203125 32.601562 C 170.234375 34.265625 168.863281 35.570312 167.09375 36.519531 C 165.324219 37.464844 163.269531 37.941406 160.933594 37.941406 Z M 153.789062 36.488281 L 160.804688 36.488281 C 162.890625 36.488281 164.703125 36.074219 166.242188 35.253906 C 167.777344 34.433594 168.96875 33.304688 169.8125 31.871094 C 170.65625 30.417969 171.078125 28.753906 171.078125 26.878906 C 171.078125 25.003906 170.65625 23.351562 169.8125 21.917969 C 168.96875 20.464844 167.777344 19.328125 166.242188 18.503906 C 164.703125 17.683594 162.890625 17.273438 160.804688 17.273438 L 153.789062 17.273438 Z M 179.703125 25.996094 L 191.679688 25.996094 L 191.679688 27.417969 L 179.703125 27.417969 Z M 179.894531 36.488281 L 193.546875 36.488281 L 193.546875 37.941406 L 178.28125 37.941406 L 178.28125 15.820312 L 193.070312 15.820312 L 193.070312 17.273438 L 179.894531 17.273438 Z M 208.683594 38.097656 C 207.039062 38.097656 205.511719 37.824219 204.101562 37.277344 C 202.710938 36.707031 201.496094 35.917969 200.464844 34.90625 C 199.433594 33.894531 198.632812 32.714844 198.0625 31.367188 C 197.496094 29.996094 197.210938 28.503906 197.210938 26.878906 C 197.210938 25.257812 197.496094 23.773438 198.0625 22.425781 C 198.632812 21.054688 199.433594 19.863281 200.464844 18.851562 C 201.519531 17.84375 202.742188 17.0625 204.132812 16.515625 C 205.523438 15.945312 207.039062 15.660156 208.683594 15.660156 C 210.242188 15.660156 211.695312 15.914062 213.042969 16.417969 C 214.414062 16.925781 215.582031 17.695312 216.550781 18.726562 L 215.539062 19.769531 C 214.589844 18.84375 213.539062 18.179688 212.378906 17.777344 C 211.242188 17.355469 210.03125 17.148438 208.746094 17.148438 C 207.332031 17.148438 206.015625 17.390625 204.796875 17.875 C 203.59375 18.359375 202.539062 19.042969 201.636719 19.925781 C 200.75 20.8125 200.054688 21.84375 199.550781 23.023438 C 199.066406 24.203125 198.824219 25.488281 198.824219 26.878906 C 198.824219 28.269531 199.066406 29.554688 199.550781 30.734375 C 200.054688 31.914062 200.75 32.949219 201.636719 33.832031 C 202.539062 34.71875 203.59375 35.402344 204.796875 35.886719 C 206.015625 36.371094 207.332031 36.613281 208.746094 36.613281 C 210.03125 36.613281 211.242188 36.414062 212.378906 36.011719 C 213.539062 35.589844 214.589844 34.90625 215.539062 33.957031 L 216.550781 35 C 215.582031 36.035156 214.414062 36.8125 213.042969 37.339844 C 211.695312 37.84375 210.242188 38.097656 208.683594 38.097656 Z M 223.34375 32.347656 L 223.28125 30.324219 L 237.375 15.820312 L 239.335938 15.820312 L 229.476562 26.027344 L 228.558594 27.007812 Z M 221.953125 37.941406 L 221.953125 15.820312 L 223.566406 15.820312 L 223.566406 37.941406 Z M 238.039062 37.941406 L 228.085938 26.5625 L 229.191406 25.394531 L 240 37.941406 Z M 238.039062 37.941406 "/>
<path fill-rule="nonzero" fill-opacity="0.7" d="M 70.050781 10.160156 L 70.476562 10.160156 L 70.476562 44.019531 L 70.050781 44.019531 Z M 70.050781 10.160156 "/>
</symbol>
</svg>
