<?xml version="1.0" encoding="UTF-8"?>
<svg xmlns="http://www.w3.org/2000/svg" xmlns:xlink="http://www.w3.org/1999/xlink" width="24" height="24" viewBox="0 0 24 24">
<path d="M 22 11.757812 C 22 12.402344 21.84375 13.175781 21.6875 13.855469 L 21.6875 13.863281 C 21.285156 15.492188 19.828125 16.632812 18.152344 16.632812 L 18.105469 16.632812 C 16.046875 16.632812 14.753906 14.941406 14.753906 13.050781 L 14.753906 10.34375 L 13.222656 12.613281 L 13.136719 12.683594 C 12.476562 13.230469 11.523438 13.230469 10.867188 12.683594 L 10.785156 12.617188 L 9.203125 10.3125 L 9.203125 15.898438 L 7.699219 15.898438 L 7.699219 9.820312 C 7.699219 8.667969 9.0625 7.996094 9.96875 8.804688 L 10.039062 8.863281 L 11.886719 11.558594 C 11.957031 11.59375 12.042969 11.59375 12.113281 11.558594 L 13.921875 8.878906 L 14.003906 8.808594 C 14.867188 8.09375 16.257812 8.636719 16.257812 9.839844 L 16.257812 13.050781 C 16.257812 14.28125 17.042969 15.125 18.105469 15.125 L 18.152344 15.125 C 19.136719 15.125 19.984375 14.457031 20.222656 13.507812 C 20.378906 12.832031 20.496094 12.210938 20.496094 11.765625 C 20.472656 6.910156 16.367188 3.207031 11.398438 3.539062 C 7.207031 3.832031 3.820312 7.214844 3.527344 11.40625 C 3.367188 13.757812 4.183594 16.066406 5.792969 17.789062 C 7.398438 19.507812 9.648438 20.484375 12 20.484375 L 12 21.988281 C 9.230469 21.992188 6.582031 20.84375 4.691406 18.816406 C 2.800781 16.792969 1.832031 14.070312 2.023438 11.304688 C 2.371094 6.359375 6.351562 2.378906 11.292969 2.035156 C 17.085938 1.644531 21.976562 5.988281 22 11.757812 Z M 22 11.757812 "/>
</svg>
