<?xml version="1.0" encoding="UTF-8"?>
<svg xmlns="http://www.w3.org/2000/svg" xmlns:xlink="http://www.w3.org/1999/xlink" width="24" height="24" viewBox="0 0 24 24">
<path d="M 20.039062 2.117188 C 19.503906 2.117188 19.054688 2.277344 18.714844 2.597656 C 18.367188 2.921875 18.191406 3.296875 18.191406 3.707031 L 18.191406 11.019531 C 18.191406 12.003906 18.019531 12.726562 17.675781 13.171875 C 17.34375 13.601562 16.8125 13.8125 16.054688 13.8125 C 15.28125 13.8125 14.75 13.605469 14.4375 13.175781 C 14.113281 12.730469 13.949219 12.003906 13.949219 11.019531 L 13.949219 3.679688 C 13.949219 3.179688 13.71875 2.769531 13.289062 2.496094 C 12.703125 2.128906 12.117188 1.992188 11.40625 2.230469 C 11.191406 2.300781 10.988281 2.394531 10.800781 2.507812 C 10.601562 2.628906 10.4375 2.78125 10.304688 2.957031 C 10.15625 3.15625 10.082031 3.367188 10.082031 3.59375 L 10.082031 11.023438 C 10.082031 12.003906 9.917969 12.730469 9.589844 13.175781 C 9.277344 13.605469 8.75 13.8125 7.972656 13.8125 C 7.199219 13.8125 6.664062 13.601562 6.34375 13.175781 C 6.007812 12.726562 5.835938 12.003906 5.835938 11.019531 L 5.835938 3.707031 C 5.835938 3.292969 5.664062 2.921875 5.316406 2.597656 C 4.972656 2.277344 4.519531 2.117188 3.960938 2.117188 C 3.390625 2.117188 2.917969 2.277344 2.558594 2.59375 C 2.1875 2.914062 2 3.292969 2 3.707031 L 2 10.90625 C 2 11.8125 2.089844 12.667969 2.261719 13.453125 C 2.441406 14.253906 2.753906 14.957031 3.1875 15.542969 C 3.628906 16.132812 4.226562 16.597656 4.96875 16.929688 C 5.699219 17.257812 6.617188 17.421875 7.691406 17.421875 C 8.808594 17.421875 9.746094 17.214844 10.476562 16.804688 C 11.085938 16.460938 11.601562 16.011719 12.011719 15.460938 C 12.40625 16.011719 12.90625 16.460938 13.511719 16.804688 C 14.230469 17.214844 15.183594 17.421875 16.339844 17.421875 C 17.414062 17.421875 18.324219 17.257812 19.046875 16.929688 C 19.777344 16.597656 20.371094 16.132812 20.8125 15.542969 C 21.25 14.953125 21.5625 14.25 21.738281 13.453125 C 21.910156 12.667969 22 11.8125 22 10.90625 L 22 3.707031 C 22 3.292969 21.820312 2.917969 21.460938 2.59375 C 21.113281 2.277344 20.632812 2.117188 20.039062 2.117188 Z M 20.039062 2.117188 "/>
<path d="M 7.214844 19.386719 L 8.515625 19.386719 C 8.847656 19.386719 9.113281 19.65625 9.113281 19.988281 L 9.113281 21.289062 C 9.113281 21.621094 8.847656 21.886719 8.515625 21.886719 L 7.214844 21.886719 C 6.882812 21.886719 6.613281 21.621094 6.613281 21.289062 L 6.613281 19.988281 C 6.613281 19.65625 6.882812 19.386719 7.214844 19.386719 Z M 7.214844 19.386719 "/>
<path d="M 15.242188 19.386719 L 16.542969 19.386719 C 16.875 19.386719 17.144531 19.65625 17.144531 19.988281 L 17.144531 21.289062 C 17.144531 21.621094 16.875 21.886719 16.542969 21.886719 L 15.242188 21.886719 C 14.910156 21.886719 14.644531 21.621094 14.644531 21.289062 L 14.644531 19.988281 C 14.644531 19.65625 14.910156 19.386719 15.242188 19.386719 Z M 15.242188 19.386719 "/>
</svg>
