<?xml version="1.0" encoding="UTF-8"?>
<svg xmlns="http://www.w3.org/2000/svg" xmlns:xlink="http://www.w3.org/1999/xlink" width="24" height="24" viewBox="0 0 24 24">
<path fill-rule="nonzero" fill-opacity="1" d="M 5.957031 2 C 3.78125 2 2 3.785156 2 5.964844 L 2 18.035156 C 2 20.214844 3.78125 22 5.957031 22 L 18.035156 22 C 20.214844 22 22 20.214844 22 18.035156 L 22 5.964844 C 22 3.785156 20.214844 2 18.035156 2 Z M 5.957031 3.886719 L 10.957031 3.886719 L 10.957031 20.113281 L 5.957031 20.113281 C 4.792969 20.113281 3.886719 19.203125 3.886719 18.035156 L 3.886719 5.964844 C 3.886719 4.796875 4.792969 3.886719 5.957031 3.886719 Z M 13.039062 3.886719 L 18.035156 3.886719 C 19.203125 3.886719 20.109375 4.796875 20.109375 5.964844 L 20.109375 18.035156 C 20.109375 19.203125 19.203125 20.113281 18.035156 20.113281 L 13.039062 20.113281 Z M 13.039062 3.886719 "/>
<path fill-rule="nonzero" fill-opacity="1" d="M 13.945312 5.988281 L 13.945312 7.988281 L 18.945312 7.988281 L 18.945312 5.988281 Z M 13.945312 5.988281 "/>
<path fill-rule="nonzero" fill-opacity="1" d="M 13.9375 9.425781 L 13.9375 11.425781 L 18.9375 11.425781 L 18.9375 9.425781 Z M 13.9375 9.425781 "/>
<path fill-rule="nonzero" fill-opacity="1" d="M 13.941406 12.863281 L 13.941406 14.863281 L 18.941406 14.863281 L 18.941406 12.863281 Z M 13.941406 12.863281 "/>
</svg>
